<?xml version="1.0" encoding="UTF-8"?><svg id="a" xmlns="http://www.w3.org/2000/svg" width="2.26cm" height="2.26cm" viewBox="0 0 64 64"><rect width="64" height="64"/><path d="M28.35,38.03l-.12-1.53c-.35-3.18.71-6.65,3.65-10.19,2.65-3.12,4.12-5.42,4.12-8.07,0-3-1.88-5-5.59-5.06-2.12,0-4.48.71-5.95,1.83l-1.41-3.71c1.94-1.41,5.3-2.36,8.42-2.36,6.77,0,9.83,4.18,9.83,8.66,0,4-2.24,6.89-5.06,10.25-2.59,3.06-3.53,5.65-3.36,8.66l.06,1.53h-4.59ZM27.06,46.28c0-2.18,1.47-3.71,3.53-3.71s3.47,1.53,3.47,3.71c0,2.06-1.35,3.65-3.53,3.65-2.06,0-3.47-1.59-3.47-3.65Z" fill="#c7922f"/></svg>